<svg width="223" height="24" viewBox="0 0 223 24" fill="none" xmlns="http://www.w3.org/2000/svg">
<path d="M206 13L1 13C0.447723 13 0 12.5523 0 12C0 11.4477 0.447708 11 1 11L206 11V13Z" fill="white"/>
<path d="M208.466 14.534C207.25 13.3181 205.418 12.5205 203.761 12C205.418 11.4795 207.25 10.6819 208.466 9.46602C209.682 8.25015 210.48 6.41819 211 4.76083C211.52 6.41819 212.318 8.25015 213.534 9.46602C214.75 10.6819 216.582 11.4795 218.239 12C216.582 12.5205 214.75 13.3181 213.534 14.534C212.318 15.7498 211.52 17.5818 211 19.2392C210.48 17.5818 209.682 15.7498 208.466 14.534Z" stroke="white" stroke-width="2"/>
</svg>
