<svg width="419" height="24" viewBox="0 0 419 24" fill="none" xmlns="http://www.w3.org/2000/svg">
<path d="M402 13L0.999991 13C0.447706 13 0 12.5523 0 12V12C0 11.4477 0.447715 11 1 11L402 11V13Z" fill="white"/>
<path d="M404.466 14.534C403.25 13.3181 401.418 12.5205 399.761 12C401.418 11.4795 403.25 10.6819 404.466 9.46602C405.682 8.25015 406.48 6.41819 407 4.76083C407.52 6.41819 408.318 8.25015 409.534 9.46602C410.75 10.6819 412.582 11.4795 414.239 12C412.582 12.5205 410.75 13.3181 409.534 14.534C408.318 15.7498 407.52 17.5818 407 19.2392C406.48 17.5818 405.682 15.7498 404.466 14.534Z" stroke="white" stroke-width="2"/>
</svg>
