<svg width="419" height="24" viewBox="0 0 419 24" fill="none" xmlns="http://www.w3.org/2000/svg">
<path d="M17 11H418C418.552 11 419 11.4477 419 12V12C419 12.5523 418.552 13 418 13H17V11Z" fill="white"/>
<path d="M14.534 9.46602C15.7498 10.6819 17.5818 11.4795 19.2392 12C17.5818 12.5205 15.7498 13.3181 14.534 14.534C13.3181 15.7498 12.5205 17.5818 12 19.2392C11.4795 17.5818 10.6819 15.7498 9.46602 14.534C8.25015 13.3181 6.41819 12.5205 4.76083 12C6.41819 11.4795 8.25015 10.6819 9.46602 9.46602C10.6819 8.25015 11.4795 6.41819 12 4.76083C12.5205 6.41819 13.3181 8.25015 14.534 9.46602Z" stroke="white" stroke-width="2"/>
</svg>
